<?xml version="1.0" encoding="UTF-8"?>
<svg version="1.1" xmlns="http://www.w3.org/2000/svg" width="981" height="905">
<path d="M0 0 C323.73 0 647.46 0 981 0 C981 298.65 981 597.3 981 905 C657.27 905 333.54 905 0 905 C0 606.35 0 307.7 0 0 Z " fill="#FEFEFE" transform="translate(0,0)"/>
<path d="M0 0 C1.19074631 0.00607269 1.19074631 0.00607269 2.4055481 0.01226807 C3.6593779 0.00701111 3.6593779 0.00701111 4.9385376 0.00164795 C7.71017689 -0.00717701 10.48156232 -0.00131755 13.25320435 0.00543213 C15.17369638 0.0040857 17.09418809 0.00214535 19.01467896 -0.00036621 C23.0431136 -0.00331851 27.07145967 0.00098357 31.09988403 0.01031494 C36.27200878 0.02170953 41.44392597 0.01515062 46.61604309 0.00317001 C50.5827695 -0.00404573 54.54944644 -0.00176197 58.51617432 0.0034256 C60.42362492 0.00476289 62.33107997 0.00311163 64.23852539 -0.00153351 C66.90109206 -0.00659407 69.5633193 0.00110477 72.2258606 0.01226807 C73.01969147 0.0082196 73.81352234 0.00417114 74.63140869 0 C80.08717606 0.04252885 80.08717606 0.04252885 82.31570435 2.27105713 C82.5461731 4.36480713 82.5461731 4.36480713 82.50320435 6.77105713 C82.49675903 7.56511963 82.49031372 8.35918213 82.4836731 9.17730713 C82.31570435 11.27105713 82.31570435 11.27105713 81.31570435 13.27105713 C79.57933716 13.32713135 79.57933716 13.32713135 77.80789185 13.38433838 C76.26879874 13.45003138 74.72973765 13.51647755 73.19070435 13.58355713 C72.04988403 13.61739502 72.04988403 13.61739502 70.88601685 13.6519165 C65.85515482 13.89044876 61.08111964 14.50564183 57.31570435 18.27105713 C55.75992168 35.97127306 61.25504011 52.62452062 66.4758606 69.30621338 C68.28758768 75.11832477 69.94519528 80.96566438 71.56570435 86.83355713 C74.45837445 97.27321118 77.42937341 107.68892152 80.43618774 118.09622192 C80.93798541 119.83357761 81.43904703 121.57114607 81.93936157 123.30892944 C82.64352029 125.75392498 83.35030206 128.19814641 84.05789185 130.64215088 C84.27112091 131.38367401 84.48434998 132.12519714 84.70404053 132.88919067 C85.78508765 136.66456862 85.78508765 136.66456862 87.31570435 140.27105713 C87.97570435 140.27105713 88.63570435 140.27105713 89.31570435 140.27105713 C94.80894693 126.74001817 100.04933387 113.12878311 105.13479614 99.43951416 C106.21086098 96.55235902 107.29505042 93.6683575 108.38108826 90.78494263 C110.93673856 83.99418621 113.45197668 77.1896166 115.9367981 70.37261963 C116.24826782 69.51829346 116.55973755 68.66396729 116.88064575 67.78375244 C118.15789358 64.27868587 119.43440205 60.77335412 120.70852661 57.26715088 C124.34406708 47.26685304 128.02810803 37.29335953 131.93690491 27.39608765 C134.13564744 21.8137415 136.20057475 16.18795525 138.09391785 10.49417114 C139.6806748 6.05180335 141.69354257 3.28388328 145.31570435 0.27105713 C148.87306841 -0.39594863 150.58012557 -0.13466204 153.74221802 1.60943604 C157.60453655 5.60402826 158.77913952 10.20601259 160.4914856 15.41949463 C161.27639261 17.7003823 162.06508133 19.97997148 162.85720825 22.25836182 C163.26151062 23.42621216 163.66581299 24.5940625 164.08236694 25.79730225 C165.99697436 31.1898873 168.10035531 36.50095077 170.2336731 41.81011963 C170.6554332 42.8619191 171.0771933 43.91371857 171.51173401 44.99739075 C172.83879706 48.29833753 174.17093707 51.59720779 175.50320435 54.89605713 C176.44987332 57.2496314 177.39607069 59.60339542 178.34182739 61.95733643 C180.06374948 66.2423833 181.78683291 70.52695759 183.51161289 74.81085491 C186.88963887 83.20230635 190.24993971 91.60077656 193.60476685 100.00152588 C194.11811223 101.28672524 194.63146363 102.5719222 195.14482117 103.8571167 C197.12830352 108.82308888 199.11146602 113.78918867 201.09411621 118.75549316 C202.45491585 122.16335465 203.81681735 125.57077376 205.1789856 128.97808838 C205.58521149 129.99622116 205.99143738 131.01435394 206.40997314 132.06333923 C206.78016571 132.988871 207.15035828 133.91440277 207.5317688 134.86798096 C207.85401932 135.67471756 208.17626984 136.48145416 208.50828552 137.31263733 C209.29986224 139.29981929 209.29986224 139.29981929 210.31570435 141.27105713 C210.97570435 141.27105713 211.63570435 141.27105713 212.31570435 141.27105713 C215.95869276 129.94737187 219.21218344 118.55788267 222.2571106 107.06011963 C222.71101045 105.35485691 223.16511139 103.64964771 223.61940002 101.94448853 C224.56365283 98.39704271 225.50541164 94.84894718 226.44534302 91.300354 C227.63599566 86.80604665 228.83306439 82.31347805 230.03205967 77.82139015 C230.96909362 74.30771163 231.90257228 70.79309562 232.83506584 67.27820969 C233.27444466 65.62372512 233.7148775 63.96952001 234.15649605 62.31563187 C236.4339382 53.77882429 238.62687781 45.22525936 240.61624146 36.61627197 C240.78855821 35.89598627 240.96087496 35.17570057 241.13841343 34.43358803 C242.22464043 29.60939324 242.64927898 25.21980597 242.31570435 20.27105713 C239.6141466 16.74402341 237.64367814 15.0092734 233.31570435 14.27105713 C229.87126784 14.04917625 226.43262086 13.87861782 222.9836731 13.753479 C217.5310378 13.48639058 217.5310378 13.48639058 215.31570435 11.27105713 C215.05007935 9.17730713 215.05007935 9.17730713 215.06570435 6.77105713 C215.05796997 5.57996338 215.05796997 5.57996338 215.05007935 4.36480713 C215.31570435 2.27105713 215.31570435 2.27105713 217.31570435 0.27105713 C220.16226196 0.01708984 220.16226196 0.01708984 223.84500122 0.01226807 C224.51507706 0.00876343 225.18515289 0.00525879 225.87553406 0.00164795 C228.09527887 -0.00717019 230.31470617 -0.00132011 232.53445435 0.00543213 C234.0738023 0.0040855 235.61314984 0.00214498 237.15249634 -0.00036621 C240.38060551 -0.00331758 243.6086041 0.00098052 246.83670044 0.01031494 C250.97976229 0.02170956 255.12256503 0.01515014 259.26561737 0.00317001 C262.44485434 -0.00404829 265.62402963 -0.00176081 268.80326843 0.0034256 C270.33113129 0.00476218 271.8589997 0.00311407 273.38685608 -0.00153351 C275.52019134 -0.00659834 277.65310379 0.00111044 279.78640747 0.01226807 C281.6093634 0.01465485 281.6093634 0.01465485 283.46914673 0.01708984 C286.31570435 0.27105713 286.31570435 0.27105713 288.31570435 2.27105713 C288.63922225 5.76505048 288.80882314 8.30371957 287.1946106 11.47027588 C284.51959812 14.03406122 282.58727795 13.70438485 278.94070435 13.70855713 C273.81535483 13.95626325 273.81535483 13.95626325 269.25320435 16.14605713 C263.69701502 25.10765281 261.44127439 36.214615 258.44070435 46.27105713 C257.55445962 49.22471738 256.66581492 52.17765226 255.77664185 55.13043213 C255.56124756 55.84648621 255.34585327 56.56254028 255.12393188 57.30029297 C253.74169496 61.88639473 252.32868406 66.46114487 250.86502075 71.02203369 C250.60124634 71.84671143 250.33747192 72.67138916 250.06570435 73.52105713 C249.86565796 74.14514465 249.66561157 74.76923218 249.45950317 75.41223145 C247.71410955 80.9039679 246.11211637 86.42788007 244.55007935 91.97418213 C241.17997379 103.85157559 237.59438587 115.65995004 233.99295044 127.46881104 C230.69583266 138.28876439 227.46064341 149.12067316 224.39297485 160.00823975 C221.90202879 168.82708142 219.16494113 177.56202971 216.31570435 186.27105713 C215.75882935 187.99775635 215.75882935 187.99775635 215.19070435 189.75933838 C214.86070435 190.73258057 214.53070435 191.70582275 214.19070435 192.70855713 C213.92000122 193.51164307 213.6492981 194.314729 213.37039185 195.14215088 C212.06384159 197.77944676 210.5711151 199.38944816 208.31570435 201.27105713 C204.87820435 201.83355713 204.87820435 201.83355713 201.31570435 201.27105713 C196.1964996 197.25790186 194.36541494 192.41969604 192.08303833 186.54083252 C191.69193375 185.56416626 191.30082916 184.5875 190.89787292 183.58123779 C189.60686046 180.34848268 188.33436013 177.10877089 187.0617981 173.86871338 C186.15718038 171.59314941 185.25140345 169.31804596 184.3445282 167.04338074 C181.95231683 161.03420614 179.57564624 155.01900266 177.20223999 149.00238037 C174.82915722 142.9939559 172.44211044 136.99108952 170.05593872 130.987854 C166.41700503 121.82851564 162.78490574 112.66650391 159.15896606 103.50201416 C155.13535502 93.3337392 151.09780907 83.17117089 147.0383606 73.01715088 C146.55660873 71.81043228 146.07485687 70.60371368 145.57850647 69.36042786 C145.15154984 68.29380417 144.7245932 67.22718048 144.28469849 66.12823486 C143.92364517 65.22596664 143.56259186 64.32369843 143.19059753 63.39408875 C142.34486098 61.26879288 142.34486098 61.26879288 141.31570435 59.27105713 C137.98258748 59.98964038 137.98258748 59.98964038 136.7024231 63.48980713 C136.12461398 64.91231179 135.5587144 66.33969713 135.00320435 67.77105713 C134.73314575 68.43492432 134.46308716 69.0987915 134.18484497 69.78277588 C132.4537899 74.11238514 130.88181799 78.48961017 129.35020447 82.89344788 C125.80432517 93.08126016 121.92664506 103.12262528 117.96969604 113.15707397 C116.78629636 116.15813478 115.60643773 119.16056672 114.42752075 122.16339111 C113.2204253 125.23795684 112.01316866 128.31245758 110.80487061 131.3865509 C107.37572339 140.11112468 103.96504013 148.84277796 100.56759644 157.57974243 C99.70121951 159.80653074 98.83304617 162.03261221 97.96463013 164.25860596 C95.53486888 170.49495172 93.12823859 176.73608872 90.81570435 183.01715088 C90.4491272 184.00707031 90.08255005 184.99698975 89.7048645 186.01690674 C89.05911096 187.77057686 88.42235778 189.52760665 87.79763794 191.28887939 C86.27587823 195.42134403 84.97896158 198.56922948 81.31570435 201.27105713 C79.31570435 201.83746338 79.31570435 201.83746338 77.31570435 201.83355713 C76.32570435 201.86642822 76.32570435 201.86642822 75.31570435 201.89996338 C72.13789377 200.90069091 71.17856533 199.0089714 69.31570435 196.27105713 C68.03603208 193.20886775 67.09136875 190.06669076 66.14382935 186.88824463 C65.86039169 185.96964157 65.57695404 185.05103851 65.28492737 184.104599 C64.36760538 181.12163585 63.46643162 178.13406871 62.56570435 175.14605713 C61.93480683 173.08191152 61.30304826 171.0180289 60.67044067 168.95440674 C58.86921936 163.06483598 57.08833422 157.16928912 55.31570435 151.27105713 C55.09211243 150.52773132 54.86852051 149.78440552 54.63815308 149.01855469 C52.48525192 141.85496678 50.3690871 134.68095623 48.26638794 127.50250244 C43.09175907 109.91354823 37.77458569 92.36551252 32.34695435 74.85308838 C30.90887312 70.21092288 29.49692141 65.56157265 28.09695435 60.90777588 C24.70870552 49.7095481 21.27357633 38.58325592 16.94070435 27.70855713 C16.61908325 26.89983154 16.29746216 26.09110596 15.96609497 25.25787354 C13.76743112 19.88929174 13.76743112 19.88929174 10.31570435 15.27105713 C6.02543099 13.84096601 1.74884113 13.93823572 -2.7507019 13.74761963 C-3.71878784 13.590354 -4.68687378 13.43308838 -5.68429565 13.27105713 C-8.39662505 9.20256304 -7.99129452 7.10628929 -7.68429565 2.27105713 C-5.13244558 -0.28079294 -3.47977913 0.0271256 0 0 Z " fill="#0F48A1" transform="translate(466.6842956542969,357.72894287109375)"/>
<path d="M0 0 C2.77023573 -0.29687841 5.31732564 -0.39901082 8.08984375 -0.37231445 C9.34367355 -0.37779045 9.34367355 -0.37779045 10.62283325 -0.38337708 C13.39459349 -0.39150401 16.16577303 -0.37785487 18.9375 -0.36328125 C20.85799153 -0.3627629 22.7784836 -0.36327963 24.69897461 -0.36479187 C28.72745668 -0.36470205 32.75573903 -0.35425285 36.78417969 -0.33618164 C41.95631803 -0.31349415 47.12816434 -0.31294933 52.30033875 -0.31969929 C56.26707571 -0.32303565 60.2337457 -0.31641547 64.20046997 -0.30657005 C66.10791677 -0.30271201 68.015371 -0.30157233 69.92282104 -0.3031559 C72.58541134 -0.30352543 75.2476227 -0.29093796 77.91015625 -0.2746582 C79.10090256 -0.27837433 79.10090256 -0.27837433 80.31570435 -0.28216553 C85.77125925 -0.22874075 85.77125925 -0.22874075 88 2 C88.46376812 9.30434783 88.46376812 9.30434783 86 13 C82.67387994 13.35423924 79.45623957 13.43639539 76.1171875 13.43945312 C71.02018892 13.57682576 67.8101469 14.3068313 64 18 C60.60698093 25.43053406 60.5598239 33.13496334 60.6015625 41.15625 C60.59725723 42.99237854 60.59725723 42.99237854 60.59286499 44.86560059 C60.59083478 47.43384264 60.59629111 50.00210053 60.60888672 52.5703125 C60.62506549 56.51597075 60.60894498 60.46062175 60.58984375 64.40625 C60.5918242 66.90625227 60.59566374 69.40625391 60.6015625 71.90625 C60.59548981 73.08948853 60.58941711 74.27272705 60.5831604 75.49182129 C60.59261688 76.58055542 60.60207336 77.66928955 60.61181641 78.79101562 C60.61539658 80.23136169 60.61539658 80.23136169 60.61904907 81.70080566 C60.74476288 82.45953979 60.87047668 83.21827393 61 84 C64.88384815 86.5892321 68.1006846 86.26601301 72.60229492 86.22705078 C73.48055435 86.22734283 74.35881378 86.22763489 75.26368713 86.22793579 C78.16938118 86.2265414 81.07481945 86.210975 83.98046875 86.1953125 C85.99400187 86.19158276 88.0075368 86.1887356 90.02107239 86.18673706 C95.32295739 86.17909753 100.62473297 86.15944626 105.92657471 86.1373291 C111.33580037 86.11687758 116.7450437 86.10773683 122.15429688 86.09765625 C132.76957935 86.07620071 143.38478058 86.04206087 154 86 C154.06974839 78.18480669 154.12293663 70.36968737 154.15543652 62.55426025 C154.17104099 58.92457015 154.19218257 55.29509422 154.22631836 51.66552734 C154.25909979 48.15770383 154.27689219 44.65008532 154.28463173 41.14212036 C154.29280918 39.1636071 154.31619824 37.18517542 154.33988953 35.20678711 C154.34114552 28.44070345 154.09732991 23.08013053 151 17 C145.58062577 13.05294131 139.73187433 13.55839704 133.265625 13.40625 C132.18796875 13.2721875 131.1103125 13.138125 130 13 C127.54188375 9.31282562 127.68881836 7.35654296 128 3 C128.66 2.01 129.32 1.02 130 0 C132.77023573 -0.29687841 135.31732564 -0.39901082 138.08984375 -0.37231445 C138.92573029 -0.37596512 139.76161682 -0.37961578 140.62283325 -0.38337708 C143.39459349 -0.39150401 146.16577303 -0.37785487 148.9375 -0.36328125 C150.85799153 -0.3627629 152.7784836 -0.36327963 154.69897461 -0.36479187 C158.72745668 -0.36470205 162.75573903 -0.35425285 166.78417969 -0.33618164 C171.95631803 -0.31349415 177.12816434 -0.31294933 182.30033875 -0.31969929 C186.26707571 -0.32303565 190.2337457 -0.31641547 194.20046997 -0.30657005 C196.10791677 -0.30271201 198.015371 -0.30157233 199.92282104 -0.3031559 C202.58541134 -0.30352543 205.2476227 -0.29093796 207.91015625 -0.2746582 C209.10090256 -0.27837433 209.10090256 -0.27837433 210.31570435 -0.28216553 C215.77125925 -0.22874075 215.77125925 -0.22874075 218 2 C218.46376812 9.30434783 218.46376812 9.30434783 216 13 C212.67387994 13.35423924 209.45623957 13.43639539 206.1171875 13.43945312 C202.64421902 13.53305544 199.98016957 14.00691272 196.671875 15.16015625 C189.72200165 22.54693684 190.5676571 35.9255302 190.64355469 45.54785156 C190.64048813 47.4580307 190.64048813 47.4580307 190.63735962 49.40679932 C190.63229226 52.8529312 190.64562376 56.29875669 190.66288662 59.74483967 C190.67809534 63.37559999 190.67675258 67.00635916 190.67755127 70.637146 C190.68122507 76.72592289 190.69609898 82.81458578 190.71875 88.90332031 C190.74767149 96.69291735 190.75798239 104.48242311 190.7624321 112.27206802 C190.76642624 119.00868674 190.77891933 125.74528605 190.79277897 132.48189068 C190.79685391 134.62951043 190.7997915 136.77712951 190.80257416 138.92475128 C190.80842669 142.93977797 190.82312697 146.95472648 190.83886719 150.96972656 C190.84054398 152.73425171 190.84054398 152.73425171 190.84225464 154.53442383 C190.38166166 169.07138337 190.38166166 169.07138337 196 182 C200.65897358 184.56117174 205.52932237 184.39763771 210.73632812 184.56640625 C215.79808883 184.79808883 215.79808883 184.79808883 218 187 C218.46376812 194.30434783 218.46376812 194.30434783 216 198 C213.23017913 198.30217152 210.68288656 198.40939458 207.91015625 198.38818359 C206.65632645 198.39606903 206.65632645 198.39606903 205.37716675 198.40411377 C202.60542284 198.4173517 199.83425007 198.40856242 197.0625 198.3984375 C195.14200734 198.40045715 193.22151542 198.40336767 191.30102539 198.40713501 C187.27254955 198.4115635 183.24427302 198.40511044 179.21582031 198.39111328 C174.04360592 198.37402111 168.8718585 198.38385948 163.69966125 198.40183067 C159.73291484 198.41265435 155.76627973 198.4092287 151.79953003 198.4014473 C149.89207911 198.39944136 147.9846182 198.40191828 146.07717896 198.40888596 C143.4144603 198.41647722 140.7525053 198.40492929 138.08984375 198.38818359 C137.29601288 198.39425629 136.50218201 198.40032898 135.68429565 198.40658569 C133.49194336 198.38095093 133.49194336 198.38095093 130 198 C127.54188375 194.31282562 127.68881836 192.35654296 128 188 C128.66 187.01 129.32 186.02 130 185 C133.046875 184.59375 133.046875 184.59375 136.75 184.5 C142.04358285 184.36484469 145.36181454 183.54964581 150 181 C150.66 181 151.32 181 152 181 C153.87517344 171.89216658 154.26834844 163.10291257 154.1953125 153.828125 C154.19157142 152.4103821 154.18872964 150.99263657 154.18673706 149.57489014 C154.17918661 145.88586999 154.15961462 142.19701326 154.1373291 138.50805664 C154.11668297 134.72674773 154.10769567 130.94541181 154.09765625 127.1640625 C154.0763584 119.77596804 154.04232962 112.38800712 154 105 C149.67363171 102.87076421 145.71085292 102.7153853 140.984375 102.74121094 C140.19188354 102.7377063 139.39939209 102.73420166 138.58288574 102.73059082 C135.97183386 102.72181195 133.36105448 102.72760904 130.75 102.734375 C128.93066354 102.73302724 127.11132742 102.73108579 125.29199219 102.72857666 C121.48238693 102.72563061 117.67287558 102.72990638 113.86328125 102.73925781 C108.98411585 102.75065203 104.10517051 102.74408978 99.22601318 102.73211288 C95.47019803 102.7248803 91.7144349 102.72718865 87.95861816 102.73236847 C86.15970839 102.73370109 84.36079387 102.73207082 82.56188965 102.72740936 C80.0463411 102.72232116 77.53114719 102.73008653 75.015625 102.74121094 C74.27469604 102.73716248 73.53376709 102.73311401 72.77038574 102.72894287 C68.56213154 102.76335818 64.15344217 102.84655783 61 106 C60.9009135 107.82399175 60.87200755 109.65183501 60.87060547 111.47851562 C60.86587723 113.23669617 60.86587723 113.23669617 60.86105347 115.03039551 C60.8630777 116.30942749 60.86510193 117.58845947 60.8671875 118.90625 C60.86623077 120.21525269 60.86527405 121.52425537 60.86428833 122.8729248 C60.86281027 125.65390189 60.86496662 128.43484695 60.86962891 131.21582031 C60.87528189 134.75842135 60.87207633 138.30094588 60.86605644 141.84354401 C60.86153887 145.23945185 60.86471992 148.63533999 60.8671875 152.03125 C60.86516327 153.29408813 60.86313904 154.55692627 60.86105347 155.85803223 C60.46037725 169.03321964 60.46037725 169.03321964 65 181 C69.62825177 183.86772807 73.35581931 184.39726324 78.75 184.5625 C85.79027356 184.79027356 85.79027356 184.79027356 88 187 C88.46376812 194.30434783 88.46376812 194.30434783 86 198 C83.23017913 198.30217152 80.68288656 198.40939458 77.91015625 198.38818359 C76.65632645 198.39606903 76.65632645 198.39606903 75.37716675 198.40411377 C72.60542284 198.4173517 69.83425007 198.40856242 67.0625 198.3984375 C65.14200734 198.40045715 63.22151542 198.40336767 61.30102539 198.40713501 C57.27254955 198.4115635 53.24427302 198.40511044 49.21582031 198.39111328 C44.04360592 198.37402111 38.8718585 198.38385948 33.69966125 198.40183067 C29.73291484 198.41265435 25.76627973 198.4092287 21.79953003 198.4014473 C19.89207911 198.39944136 17.9846182 198.40191828 16.07717896 198.40888596 C13.4144603 198.41647722 10.7525053 198.40492929 8.08984375 198.38818359 C7.29601288 198.39425629 6.50218201 198.40032898 5.68429565 198.40658569 C3.49194336 198.38095093 3.49194336 198.38095093 0 198 C-2.45811625 194.31282562 -2.31118164 192.35654296 -2 188 C-1.34 187.01 -0.68 186.02 0 185 C2.7578125 184.59375 2.7578125 184.59375 6.125 184.5 C11.75904451 184.1755589 15.99264962 183.64539266 21 181 C25.48827196 173.97487867 24.15427941 163.17807858 24.16113281 155.22119141 C24.1657675 153.82591116 24.17079303 152.43063217 24.17617798 151.03535461 C24.18923817 147.26049228 24.19573398 143.48564768 24.20018864 139.71076632 C24.20312869 137.3486015 24.20723513 134.98644143 24.21169281 132.62427902 C24.22534867 125.22233022 24.23502561 117.8203924 24.2388947 110.41843188 C24.24337597 101.89420595 24.26093505 93.37014032 24.2898953 84.84596312 C24.31154838 78.24191101 24.32160085 71.63790391 24.32293582 65.0338167 C24.32398091 61.09602512 24.32982594 57.15838463 24.34775543 53.22063065 C24.36429993 49.5154478 24.36636097 45.81052863 24.35761642 42.10532188 C24.35648586 40.10919137 24.3701523 38.11306934 24.3843689 36.11698914 C24.35360162 29.45720856 24.24839843 22.98938093 21 17 C15.6611464 12.98814469 9.69644632 13.55756344 3.265625 13.40625 C1.64914063 13.20515625 1.64914063 13.20515625 0 13 C-2.45811625 9.31282562 -2.31118164 7.35654296 -2 3 C-1.34 2.01 -0.68 1.02 0 0 Z " fill="#0F48A1" transform="translate(232,358)"/>
</svg>
